<svg width="376" height="353" viewBox="0 0 376 353" fill="none" xmlns="http://www.w3.org/2000/svg">
<path d="M82.2998 6C72.2918 6.00004 63.4788 9.23662 56.1943 15.7529C48.8901 22.2871 45 30.4659 45 40V208C45 217.534 48.8901 225.713 56.1943 232.247C63.4788 238.763 72.2918 242 82.2998 242L299.107 242L360 296.472L370 305.418V40C370 30.4659 366.11 22.2871 358.806 15.7529C351.521 9.23662 342.708 6.00004 332.7 6L82.2998 6Z" fill="white" fill-opacity="0.3" stroke="black" stroke-width="12"/>
<path d="M293.7 40C303.708 40 312.521 43.2366 319.806 49.7529C327.11 56.2871 331 64.4659 331 74V242C331 251.534 327.11 259.713 319.806 266.247C312.521 272.763 303.708 276 293.7 276H76.8926L16 330.472L6 339.418L6 74C6 64.4659 9.89009 56.2871 17.1943 49.7529C24.4788 43.2366 33.2918 40 43.2998 40L293.7 40Z" fill="white" stroke="black" stroke-width="12"/>
<path d="M71.9121 116.442C73.7826 116.442 75.6203 117.421 77.3477 119.312C79.0753 121.202 80.654 123.966 81.9902 127.424C84.6615 134.336 86.3242 143.919 86.3242 154.528C86.3242 165.138 84.6614 174.72 81.9902 181.632C80.654 185.089 79.0753 187.853 77.3477 189.744C75.6202 191.635 73.7827 192.614 71.9121 192.614C70.0416 192.614 68.2039 191.635 66.4766 189.744C64.749 187.853 63.1702 185.089 61.834 181.632C59.1628 174.72 57.5 165.138 57.5 154.528C57.5 143.919 59.1627 134.336 61.834 127.424C63.1702 123.966 64.7489 121.202 66.4766 119.312C68.2039 117.421 70.0416 116.442 71.9121 116.442Z" fill="#0E161E" stroke="black"/>
<path d="M259.087 116.442C260.958 116.442 262.796 117.421 264.523 119.312C266.251 121.202 267.829 123.966 269.166 127.424C271.837 134.336 273.5 143.919 273.5 154.528C273.5 165.138 271.837 174.72 269.166 181.632C267.829 185.089 266.251 187.853 264.523 189.744C262.796 191.635 260.958 192.614 259.087 192.614C257.217 192.614 255.379 191.635 253.652 189.744C251.924 187.853 250.346 185.089 249.009 181.632C246.338 174.72 244.675 165.138 244.675 154.528C244.675 143.919 246.338 134.336 249.009 127.424C250.346 123.966 251.924 121.202 253.652 119.312C255.379 117.421 257.217 116.442 259.087 116.442Z" fill="#0E161E" stroke="black"/>
<path d="M155.926 81.4805C161.505 80.8716 167.13 80.8334 172.714 81.3662L173.83 81.4805L240.581 88.7666C250.473 89.8463 257.966 98.2008 257.966 108.151V197.012C257.966 206.539 251.087 214.647 241.738 216.235L241.291 216.306L176.83 225.744C169.4 226.832 161.857 226.9 154.412 225.948L152.925 225.744L88.4652 216.306C78.8891 214.903 71.7905 206.69 71.7904 197.012V108.151C71.7904 98.3563 79.0502 90.1077 88.7123 88.8223L89.1742 88.7666L155.926 81.4805Z" fill="#0E161E" stroke="black"/>
<path d="M153.853 101.459C159.123 100.916 164.432 100.882 169.706 101.357L170.761 101.459L213.724 105.885C223.668 106.909 231.226 115.286 231.226 125.282V176.667C231.226 186.253 224.265 194.393 214.846 195.916L214.395 195.983L173.599 201.621C166.575 202.592 159.457 202.652 152.421 201.803L151.015 201.621L110.219 195.983C100.572 194.65 93.3876 186.405 93.3876 176.667V125.282C93.3877 115.443 100.712 107.172 110.425 105.938L110.89 105.885L153.853 101.459Z" fill="#0E161E" stroke="black"/>
<path d="M154.666 104.569C159.75 104.064 164.87 104.033 169.958 104.475L170.976 104.569L211.597 108.604C221.571 109.595 229.169 117.986 229.169 128.009V173.038C229.169 182.659 222.158 190.817 212.697 192.301L212.245 192.367L173.718 197.5C166.937 198.403 160.072 198.46 153.281 197.67L151.925 197.5L113.398 192.367C103.709 191.076 96.4731 182.812 96.4728 173.038V128.009C96.4728 118.142 103.836 109.858 113.579 108.656L114.045 108.604L154.666 104.569Z" fill="#0E161E" stroke="black"/>
<path d="M130.019 125.957C136.449 125.957 141.86 132.709 141.86 141.314C141.86 149.92 136.449 156.671 130.019 156.671C123.588 156.671 118.178 149.92 118.178 141.314C118.178 132.709 123.588 125.957 130.019 125.957Z" fill="#0E161E" stroke="black"/>
<path d="M194.81 125.957C201.24 125.957 206.652 132.709 206.652 141.314C206.652 149.92 201.24 156.671 194.81 156.671C188.38 156.671 182.969 149.92 182.969 141.314C182.969 132.709 188.38 125.957 194.81 125.957Z" fill="#0E161E" stroke="black"/>
<path d="M175.329 167.743H149.5" stroke="black"/>
<path d="M179.38 167.743H146.474C146.474 167.743 146.813 183.6 163.436 183.6C180.058 183.6 179.38 167.743 179.38 167.743Z" fill="#0E161E" stroke="black"/>
<path d="M74.4984 118.5C76.3174 118.5 78.1014 119.426 79.7777 121.211C81.4548 122.997 82.9883 125.607 84.2865 128.875C86.8818 135.408 88.4984 144.468 88.4984 154.5C88.4984 164.532 86.8818 173.592 84.2865 180.125C82.9883 183.393 81.4548 186.003 79.7777 187.789C78.1014 189.574 76.3174 190.5 74.4984 190.5C72.6795 190.5 70.8954 189.574 69.2191 187.789C67.542 186.003 66.0085 183.393 64.7103 180.125C62.115 173.592 60.4984 164.532 60.4984 154.5C60.4984 144.468 62.115 135.408 64.7103 128.875C66.0085 125.607 67.542 122.997 69.2191 121.211C70.8954 119.426 72.6795 118.5 74.4984 118.5Z" fill="#222E48" stroke="black"/>
<path d="M256.498 118.5C258.317 118.5 260.101 119.426 261.778 121.211C263.455 122.997 264.988 125.607 266.286 128.875C268.882 135.408 270.498 144.468 270.498 154.5C270.498 164.532 268.882 173.592 266.286 180.125C264.988 183.393 263.455 186.003 261.778 187.789C260.101 189.574 258.317 190.5 256.498 190.5C254.679 190.5 252.895 189.574 251.219 187.789C249.542 186.003 248.009 183.393 246.71 180.125C244.115 173.592 242.498 164.532 242.498 154.5C242.498 144.468 244.115 135.408 246.71 128.875C248.009 125.607 249.542 122.997 251.219 121.211C252.895 119.426 254.679 118.5 256.498 118.5Z" fill="#222E48" stroke="black"/>
<path d="M156.182 85.4277C161.611 84.8512 167.084 84.8149 172.519 85.3193L173.606 85.4277L237.953 92.2607C247.87 93.314 255.394 101.68 255.394 111.652V193.685C255.393 203.24 248.475 211.363 239.092 212.92L238.644 212.989L176.528 221.838C169.293 222.869 161.955 222.933 154.707 222.031L153.259 221.838L91.1437 212.989C81.5337 211.62 74.3939 203.392 74.3937 193.685V111.652C74.3937 101.836 81.6844 93.5757 91.3712 92.3154L91.8341 92.2607L156.182 85.4277Z" fill="#E0E9F1" stroke="black"/>
<path d="M154.167 104.327C159.296 103.813 164.461 103.781 169.594 104.23L170.62 104.327L211.838 108.457C221.805 109.456 229.394 117.844 229.394 127.86V174.435C229.394 184.047 222.394 192.201 212.943 193.694L212.491 193.761L173.385 199.018C166.546 199.937 159.62 199.995 152.771 199.19L151.402 199.018L112.296 193.761C102.618 192.46 95.3937 184.2 95.3937 174.435V127.86C95.3937 118 102.747 109.719 112.484 108.51L112.949 108.457L154.167 104.327Z" fill="#0E161E" stroke="black"/>
<path d="M154.958 107.27C159.906 106.791 164.887 106.761 169.839 107.18L170.829 107.27L209.77 111.032C219.766 111.998 227.394 120.399 227.394 130.441V170.999C227.394 180.646 220.345 188.819 210.855 190.273L210.401 190.338L173.499 195.121C166.898 195.977 160.22 196.03 153.609 195.281L152.288 195.121L115.387 190.338C105.668 189.078 98.3937 180.799 98.3937 170.999V130.441C98.3938 120.555 105.785 112.261 115.551 111.083L116.018 111.032L154.958 107.27Z" fill="#507DA6" stroke="black"/>
<path d="M130.998 127.5C137.251 127.5 142.498 133.882 142.498 142C142.498 150.118 137.251 156.5 130.998 156.5C124.745 156.5 119.498 150.118 119.498 142C119.498 133.882 124.745 127.5 130.998 127.5Z" fill="#87F2F8" stroke="black"/>
<path d="M193.998 127.5C200.251 127.5 205.498 133.882 205.498 142C205.498 150.118 200.251 156.5 193.998 156.5C187.745 156.5 182.498 150.118 182.498 142C182.498 133.882 187.745 127.5 193.998 127.5Z" fill="#87F2F8" stroke="black"/>
<path d="M175.056 167H149.941" stroke="black"/>
<path d="M178.995 167H146.998C146.998 167 147.328 182 163.491 182C179.654 182 178.995 167 178.995 167Z" fill="#A0F0FB" stroke="black"/>
</svg>
