<svg width="332" height="247" viewBox="0 0 332 247" fill="none" xmlns="http://www.w3.org/2000/svg">
<path d="M0 226H332V236H0V226Z" fill="black"/>
<path d="M0 231C0 228.239 2.23858 226 5 226H327C329.761 226 332 228.239 332 231V242C332 244.761 329.761 247 327 247H5C2.23858 247 0 244.761 0 242V231Z" fill="black"/>
<path d="M133 236C133 233.239 135.239 231 138 231H178C180.761 231 183 233.239 183 236V236C183 238.761 180.761 241 178 241H138C135.239 241 133 238.761 133 236V236Z" fill="white"/>
<rect x="8" width="316" height="218" rx="10" fill="black"/>
<rect x="8" y="66" width="316" height="157" fill="black"/>
<rect x="20" y="13" width="289" height="192" rx="10" fill="white"/>
<path d="M73.5 73.5C75.3189 73.5 77.103 74.4262 78.7793 76.2109C80.4564 77.9966 81.9899 80.6072 83.2881 83.875C85.8834 90.408 87.5 99.4678 87.5 109.5C87.5 119.532 85.8834 128.592 83.2881 135.125C81.9899 138.393 80.4564 141.003 78.7793 142.789C77.103 144.574 75.3189 145.5 73.5 145.5C71.6811 145.5 69.897 144.574 68.2207 142.789C66.5436 141.003 65.0101 138.393 63.7119 135.125C61.1166 128.592 59.5 119.532 59.5 109.5C59.5 99.4678 61.1166 90.408 63.7119 83.875C65.0101 80.6072 66.5436 77.9966 68.2207 76.2109C69.897 74.4262 71.6811 73.5 73.5 73.5Z" fill="#222E48" stroke="black"/>
<path d="M255.5 73.5C257.319 73.5 259.103 74.4262 260.779 76.2109C262.456 77.9966 263.99 80.6072 265.288 83.875C267.883 90.408 269.5 99.4678 269.5 109.5C269.5 119.532 267.883 128.592 265.288 135.125C263.99 138.393 262.456 141.003 260.779 142.789C259.103 144.574 257.319 145.5 255.5 145.5C253.681 145.5 251.897 144.574 250.221 142.789C248.544 141.003 247.01 138.393 245.712 135.125C243.117 128.592 241.5 119.532 241.5 109.5C241.5 99.4678 243.117 90.408 245.712 83.875C247.01 80.6072 248.544 77.9966 250.221 76.2109C251.897 74.4262 253.681 73.5 255.5 73.5Z" fill="#222E48" stroke="black"/>
<path d="M155.183 40.4277C160.975 39.8127 166.816 39.8127 172.607 40.4277L236.955 47.2607C246.871 48.314 254.395 56.68 254.395 66.6523V148.685C254.395 158.392 247.255 166.62 237.645 167.989L175.53 176.838C167.813 177.937 159.978 177.937 152.26 176.838L90.1453 167.989C80.5353 166.62 73.3955 158.392 73.3953 148.685V66.6523C73.3953 56.68 80.9192 48.314 90.8357 47.2607L155.183 40.4277Z" fill="#E0E9F1" stroke="black"/>
<path d="M153.169 59.3271C158.297 58.8132 163.462 58.7808 168.595 59.2305L169.622 59.3271L210.84 63.457C220.806 64.4558 228.395 72.8438 228.395 82.8604V129.435C228.395 139.2 221.171 147.46 211.493 148.761L172.386 154.018C165.092 154.998 157.699 154.998 150.404 154.018L111.298 148.761C101.619 147.46 94.3953 139.2 94.3953 129.435V82.8604C94.3953 72.8438 101.984 64.4558 111.951 63.457L153.169 59.3271Z" fill="#0E161E" stroke="black"/>
<path d="M153.96 62.2695C158.908 61.7914 163.888 61.7613 168.841 62.1797L169.831 62.2695L208.771 66.0322C218.767 66.9984 226.395 75.3986 226.395 85.4414V125.999C226.395 135.799 219.121 144.078 209.402 145.338L172.501 150.121C165.46 151.034 158.331 151.034 151.29 150.121L114.388 145.338C104.669 144.078 97.3953 135.799 97.3953 125.999V85.4414C97.3954 75.3986 105.023 66.9984 115.019 66.0322L153.96 62.2695Z" fill="#507DA6" stroke="black"/>
<path d="M130 82.5C136.253 82.5 141.5 88.882 141.5 97C141.5 105.118 136.253 111.5 130 111.5C123.747 111.5 118.5 105.118 118.5 97C118.5 88.882 123.747 82.5 130 82.5Z" fill="#87F2F8" stroke="black"/>
<path d="M193 82.5C199.253 82.5 204.5 88.882 204.5 97C204.5 105.118 199.253 111.5 193 111.5C186.747 111.5 181.5 105.118 181.5 97C181.5 88.882 186.747 82.5 193 82.5Z" fill="#87F2F8" stroke="black"/>
<path d="M174.057 122H148.943" stroke="black"/>
<path d="M177.996 122H146C146 122 146.33 137 162.493 137C178.656 137 177.996 122 177.996 122Z" fill="#A0F0FB" stroke="black"/>
</svg>
