<svg width="625" height="333" viewBox="0 0 625 333" fill="none" xmlns="http://www.w3.org/2000/svg">
<rect x="11.5" y="0.5" width="613" height="320" rx="7.5" fill="white" stroke="black"/>
<rect x="0.5" y="12.5" width="613" height="320" rx="7.5" fill="white" stroke="black"/>
<path d="M41.2727 61.7273H44.3636L46.9545 65.1364L47.6364 66.0455L51.5 71.1818H48.4091L45.8636 67.7727L45.2273 66.9091L41.2727 61.7273ZM52.4545 57.3636C52.4545 59.8182 52.0114 61.9394 51.125 63.7273C50.2386 65.5152 49.0227 66.8939 47.4773 67.8636C45.9318 68.8333 44.1667 69.3182 42.1818 69.3182C40.197 69.3182 38.4318 68.8333 36.8864 67.8636C35.3409 66.8939 34.125 65.5152 33.2386 63.7273C32.3523 61.9394 31.9091 59.8182 31.9091 57.3636C31.9091 54.9091 32.3523 52.7879 33.2386 51C34.125 49.2121 35.3409 47.8333 36.8864 46.8636C38.4318 45.8939 40.197 45.4091 42.1818 45.4091C44.1667 45.4091 45.9318 45.8939 47.4773 46.8636C49.0227 47.8333 50.2386 49.2121 51.125 51C52.0114 52.7879 52.4545 54.9091 52.4545 57.3636ZM49.7273 57.3636C49.7273 55.3485 49.3902 53.6477 48.7159 52.2614C48.0492 50.875 47.1439 49.8258 46 49.1136C44.8636 48.4015 43.5909 48.0455 42.1818 48.0455C40.7727 48.0455 39.4962 48.4015 38.3523 49.1136C37.2159 49.8258 36.3106 50.875 35.6364 52.2614C34.9697 53.6477 34.6364 55.3485 34.6364 57.3636C34.6364 59.3788 34.9697 61.0795 35.6364 62.4659C36.3106 63.8523 37.2159 64.9015 38.3523 65.6136C39.4962 66.3258 40.7727 66.6818 42.1818 66.6818C43.5909 66.6818 44.8636 66.3258 46 65.6136C47.1439 64.9015 48.0492 63.8523 48.7159 62.4659C49.3902 61.0795 49.7273 59.3788 49.7273 57.3636ZM67.8295 61.8636V51.5455H70.5114V69H67.8295V66.0455H67.6477C67.2386 66.9318 66.6023 67.6856 65.7386 68.3068C64.875 68.9205 63.7841 69.2273 62.4659 69.2273C61.375 69.2273 60.4053 68.9886 59.5568 68.5114C58.7083 68.0265 58.0417 67.2992 57.5568 66.3295C57.072 65.3523 56.8295 64.1212 56.8295 62.6364V51.5455H59.5114V62.4545C59.5114 63.7273 59.8674 64.7424 60.5795 65.5C61.2992 66.2576 62.2159 66.6364 63.3295 66.6364C63.9962 66.6364 64.6742 66.4659 65.3636 66.125C66.0606 65.7841 66.6439 65.2614 67.1136 64.5568C67.5909 63.8523 67.8295 62.9545 67.8295 61.8636ZM82.7415 69.3636C81.0597 69.3636 79.6089 68.9924 78.3892 68.25C77.1771 67.5 76.2415 66.4545 75.5824 65.1136C74.9309 63.7652 74.6051 62.197 74.6051 60.4091C74.6051 58.6212 74.9309 57.0455 75.5824 55.6818C76.2415 54.3106 77.1581 53.2424 78.3324 52.4773C79.5142 51.7045 80.893 51.3182 82.4688 51.3182C83.3778 51.3182 84.2756 51.4697 85.1619 51.7727C86.0483 52.0758 86.8551 52.5682 87.5824 53.25C88.3097 53.9242 88.8892 54.8182 89.321 55.9318C89.7528 57.0455 89.9688 58.4167 89.9688 60.0455V61.1818H76.5142V58.8636H87.2415C87.2415 57.8788 87.0445 57 86.6506 56.2273C86.2642 55.4545 85.7112 54.8447 84.9915 54.3977C84.2794 53.9508 83.4384 53.7273 82.4688 53.7273C81.4006 53.7273 80.4763 53.9924 79.696 54.5227C78.9233 55.0455 78.3286 55.7273 77.9119 56.5682C77.4953 57.4091 77.2869 58.3106 77.2869 59.2727V60.8182C77.2869 62.1364 77.5142 63.2538 77.9688 64.1705C78.4309 65.0795 79.071 65.7727 79.8892 66.25C80.7074 66.7197 81.6581 66.9545 82.7415 66.9545C83.446 66.9545 84.0824 66.8561 84.6506 66.6591C85.2263 66.4545 85.7225 66.1515 86.1392 65.75C86.5559 65.3409 86.8778 64.8333 87.1051 64.2273L89.696 64.9545C89.4233 65.8333 88.965 66.6061 88.321 67.2727C87.6771 67.9318 86.8816 68.447 85.9347 68.8182C84.9877 69.1818 83.9233 69.3636 82.7415 69.3636ZM106.412 55.4545L104.003 56.1364C103.851 55.7348 103.628 55.3447 103.332 54.9659C103.045 54.5795 102.651 54.2614 102.151 54.0114C101.651 53.7614 101.01 53.6364 100.23 53.6364C99.1619 53.6364 98.2718 53.8826 97.5597 54.375C96.8551 54.8598 96.5028 55.4773 96.5028 56.2273C96.5028 56.8939 96.7453 57.4205 97.2301 57.8068C97.715 58.1932 98.4725 58.5152 99.5028 58.7727L102.094 59.4091C103.654 59.7879 104.817 60.3674 105.582 61.1477C106.348 61.9205 106.73 62.9167 106.73 64.1364C106.73 65.1364 106.442 66.0303 105.866 66.8182C105.298 67.6061 104.503 68.2273 103.48 68.6818C102.457 69.1364 101.268 69.3636 99.9119 69.3636C98.1316 69.3636 96.6581 68.9773 95.4915 68.2045C94.3248 67.4318 93.5862 66.303 93.2756 64.8182L95.821 64.1818C96.0634 65.1212 96.5218 65.8258 97.196 66.2955C97.8778 66.7652 98.768 67 99.8665 67C101.116 67 102.109 66.7348 102.844 66.2045C103.586 65.6667 103.957 65.0227 103.957 64.2727C103.957 63.6667 103.745 63.1591 103.321 62.75C102.897 62.3333 102.245 62.0227 101.366 61.8182L98.4574 61.1364C96.8589 60.7576 95.6847 60.1705 94.9347 59.375C94.1922 58.572 93.821 57.5682 93.821 56.3636C93.821 55.3788 94.0975 54.5076 94.6506 53.75C95.2112 52.9924 95.9725 52.3977 96.9347 51.9659C97.9044 51.5341 99.0028 51.3182 100.23 51.3182C101.957 51.3182 103.313 51.697 104.298 52.4545C105.291 53.2121 105.995 54.2121 106.412 55.4545ZM118.358 51.5455V53.8182H109.312V51.5455H118.358ZM111.949 47.3636H114.631V64C114.631 64.7576 114.741 65.3258 114.96 65.7045C115.188 66.0758 115.475 66.3258 115.824 66.4545C116.18 66.5758 116.555 66.6364 116.949 66.6364C117.244 66.6364 117.487 66.6212 117.676 66.5909C117.866 66.553 118.017 66.5227 118.131 66.5L118.676 68.9091C118.494 68.9773 118.241 69.0455 117.915 69.1136C117.589 69.1894 117.176 69.2273 116.676 69.2273C115.919 69.2273 115.176 69.0644 114.449 68.7386C113.729 68.4129 113.131 67.9167 112.653 67.25C112.184 66.5833 111.949 65.7424 111.949 64.7273V47.3636ZM122.392 69V51.5455H125.074V69H122.392ZM123.756 48.6364C123.233 48.6364 122.782 48.4583 122.403 48.1023C122.032 47.7462 121.847 47.3182 121.847 46.8182C121.847 46.3182 122.032 45.8902 122.403 45.5341C122.782 45.178 123.233 45 123.756 45C124.278 45 124.725 45.178 125.097 45.5341C125.475 45.8902 125.665 46.3182 125.665 46.8182C125.665 47.3182 125.475 47.7462 125.097 48.1023C124.725 48.4583 124.278 48.6364 123.756 48.6364ZM137.077 69.3636C135.501 69.3636 134.118 68.9886 132.929 68.2386C131.747 67.4886 130.823 66.4394 130.156 65.0909C129.497 63.7424 129.168 62.1667 129.168 60.3636C129.168 58.5455 129.497 56.9583 130.156 55.6023C130.823 54.2462 131.747 53.1932 132.929 52.4432C134.118 51.6932 135.501 51.3182 137.077 51.3182C138.652 51.3182 140.031 51.6932 141.213 52.4432C142.402 53.1932 143.327 54.2462 143.986 55.6023C144.652 56.9583 144.986 58.5455 144.986 60.3636C144.986 62.1667 144.652 63.7424 143.986 65.0909C143.327 66.4394 142.402 67.4886 141.213 68.2386C140.031 68.9886 138.652 69.3636 137.077 69.3636ZM137.077 66.9545C138.274 66.9545 139.259 66.6477 140.031 66.0341C140.804 65.4205 141.376 64.6136 141.747 63.6136C142.118 62.6136 142.304 61.5303 142.304 60.3636C142.304 59.197 142.118 58.1098 141.747 57.1023C141.376 56.0947 140.804 55.2803 140.031 54.6591C139.259 54.0379 138.274 53.7273 137.077 53.7273C135.88 53.7273 134.895 54.0379 134.122 54.6591C133.349 55.2803 132.777 56.0947 132.406 57.1023C132.035 58.1098 131.849 59.197 131.849 60.3636C131.849 61.5303 132.035 62.6136 132.406 63.6136C132.777 64.6136 133.349 65.4205 134.122 66.0341C134.895 66.6477 135.88 66.9545 137.077 66.9545ZM151.761 58.5V69H149.08V51.5455H151.67V54.2727H151.898C152.307 53.3864 152.928 52.6742 153.761 52.1364C154.595 51.5909 155.67 51.3182 156.989 51.3182C158.17 51.3182 159.205 51.5606 160.091 52.0455C160.977 52.5227 161.667 53.25 162.159 54.2273C162.652 55.197 162.898 56.4242 162.898 57.9091V69H160.216V58.0909C160.216 56.7197 159.86 55.6515 159.148 54.8864C158.436 54.1136 157.458 53.7273 156.216 53.7273C155.36 53.7273 154.595 53.9129 153.92 54.2841C153.254 54.6553 152.727 55.197 152.341 55.9091C151.955 56.6212 151.761 57.4848 151.761 58.5Z" fill="black"/>
<ellipse cx="39" cy="104.5" rx="8" ry="9.5" fill="#D9D9D9"/>
<ellipse cx="39" cy="143.5" rx="8" ry="9.5" fill="#D9D9D9"/>
<ellipse cx="39" cy="181.5" rx="8" ry="9.5" fill="#D9D9D9"/>
<ellipse cx="39" cy="220" rx="8" ry="10" fill="#D9D9D9"/>
<rect x="31" y="273" width="53" height="17" rx="4" fill="black"/>
<path d="M43.18 285.62C42.64 285.62 42.1367 285.533 41.67 285.36C41.21 285.18 40.81 284.927 40.47 284.6C40.13 284.273 39.8633 283.89 39.67 283.45C39.4833 283.01 39.39 282.527 39.39 282C39.39 281.473 39.4833 280.99 39.67 280.55C39.8633 280.11 40.13 279.727 40.47 279.4C40.8167 279.073 41.22 278.823 41.68 278.65C42.14 278.47 42.6433 278.38 43.19 278.38C43.7967 278.38 44.3433 278.487 44.83 278.7C45.3233 278.907 45.7367 279.213 46.07 279.62L45.03 280.58C44.79 280.307 44.5233 280.103 44.23 279.97C43.9367 279.83 43.6167 279.76 43.27 279.76C42.9433 279.76 42.6433 279.813 42.37 279.92C42.0967 280.027 41.86 280.18 41.66 280.38C41.46 280.58 41.3033 280.817 41.19 281.09C41.0833 281.363 41.03 281.667 41.03 282C41.03 282.333 41.0833 282.637 41.19 282.91C41.3033 283.183 41.46 283.42 41.66 283.62C41.86 283.82 42.0967 283.973 42.37 284.08C42.6433 284.187 42.9433 284.24 43.27 284.24C43.6167 284.24 43.9367 284.173 44.23 284.04C44.5233 283.9 44.79 283.69 45.03 283.41L46.07 284.37C45.7367 284.777 45.3233 285.087 44.83 285.3C44.3433 285.513 43.7933 285.62 43.18 285.62ZM51.964 278.5H53.584V285.5H51.964V278.5ZM48.784 285.5H47.164V278.5H48.784V285.5ZM52.084 282.63H48.664V281.26H52.084V282.63ZM56.7302 281.32H60.1002V282.58H56.7302V281.32ZM56.8502 284.2H60.6602V285.5H55.2402V278.5H60.5302V279.8H56.8502V284.2ZM65.2991 285.62C64.7591 285.62 64.2558 285.533 63.7891 285.36C63.3291 285.18 62.9291 284.927 62.5891 284.6C62.2491 284.273 61.9825 283.89 61.7891 283.45C61.6025 283.01 61.5091 282.527 61.5091 282C61.5091 281.473 61.6025 280.99 61.7891 280.55C61.9825 280.11 62.2491 279.727 62.5891 279.4C62.9358 279.073 63.3391 278.823 63.7991 278.65C64.2591 278.47 64.7625 278.38 65.3091 278.38C65.9158 278.38 66.4625 278.487 66.9491 278.7C67.4425 278.907 67.8558 279.213 68.1891 279.62L67.1491 280.58C66.9091 280.307 66.6425 280.103 66.3491 279.97C66.0558 279.83 65.7358 279.76 65.3891 279.76C65.0625 279.76 64.7625 279.813 64.4891 279.92C64.2158 280.027 63.9791 280.18 63.7791 280.38C63.5791 280.58 63.4225 280.817 63.3091 281.09C63.2025 281.363 63.1491 281.667 63.1491 282C63.1491 282.333 63.2025 282.637 63.3091 282.91C63.4225 283.183 63.5791 283.42 63.7791 283.62C63.9791 283.82 64.2158 283.973 64.4891 284.08C64.7625 284.187 65.0625 284.24 65.3891 284.24C65.7358 284.24 66.0558 284.173 66.3491 284.04C66.6425 283.9 66.9091 283.69 67.1491 283.41L68.1891 284.37C67.8558 284.777 67.4425 285.087 66.9491 285.3C66.4625 285.513 65.9125 285.62 65.2991 285.62ZM70.7331 283.9L70.6431 282.03L73.9931 278.5H75.7931L72.7731 281.75L71.8731 282.71L70.7331 283.9ZM69.2831 285.5V278.5H70.8931V285.5H69.2831ZM74.0731 285.5L71.5831 282.45L72.6431 281.3L75.9631 285.5H74.0731Z" fill="white"/>
</svg>
