<svg width="231" height="168" viewBox="0 0 231 168" fill="none" xmlns="http://www.w3.org/2000/svg">
<path d="M36.1094 73.5404C35.235 83.5344 32.8353 92.4186 29.6805 98.7006C28.1024 101.843 26.3472 104.31 24.5208 105.943C22.6954 107.575 20.8371 108.342 19.0251 108.183C17.2131 108.025 15.5162 106.947 14.0018 105.023C12.4867 103.098 11.1867 100.363 10.1782 96.9944C8.16216 90.26 7.34159 81.0941 8.21596 71.1C9.09033 61.1059 11.4901 52.2218 14.6449 45.9398C16.223 42.7974 17.9781 40.3301 19.8045 38.6974C21.63 37.0655 23.4883 36.2986 25.3003 36.4572C27.1123 36.6157 28.8092 37.6936 30.3236 39.6177C31.8387 41.5427 33.1387 44.2773 34.1472 47.646C36.1632 54.3804 36.9838 63.5463 36.1094 73.5404Z" fill="#222E48" stroke="black"/>
<path d="M130.098 12.4711L196.4 25.6019C206.164 27.5357 212.905 36.5137 212.037 46.4299L204.294 134.933C203.45 144.579 195.656 152.144 185.989 152.701L120.499 156.471C112.537 156.929 104.549 156.23 96.7872 154.396L32.9473 139.312C23.5238 137.085 17.1617 128.281 18.0056 118.635L25.7486 30.1318C26.6161 20.2155 34.8133 12.5445 44.7652 12.3356L112.339 10.9174C118.298 10.7924 124.252 11.3133 130.098 12.4711Z" fill="#A3B5C5" stroke="black"/>
<path d="M126.913 12.1486L190.42 24.5639C200.207 26.4772 206.973 35.4666 206.104 45.4011L198.955 127.121C198.108 136.791 190.279 144.367 180.586 144.893L117.936 148.294C110.152 148.716 102.347 148.034 94.7547 146.266L33.6469 132.037C24.1927 129.836 17.7972 121.016 18.6433 111.346L25.7928 29.6259C26.662 19.6914 34.8866 12.0136 44.8574 11.8288L109.555 10.63C115.379 10.5221 121.197 11.0311 126.913 12.1486Z" fill="#E0E9F1" stroke="black"/>
<path d="M122.291 30.7158L162.993 38.423C172.834 40.2866 179.663 49.3036 178.79 59.282L174.731 105.679C173.88 115.407 165.964 123.006 156.209 123.459L116.793 125.287C109.441 125.629 102.075 124.984 94.8937 123.371L56.3943 114.726C46.8661 112.586 40.3899 103.729 41.241 94.0003L45.3003 47.6032C46.1733 37.6247 54.4643 29.9306 64.4801 29.8043L105.901 29.2818C111.399 29.2125 116.889 29.6928 122.291 30.7158Z" fill="#0E161E" stroke="black"/>
<path d="M122.243 33.665L160.707 40.8075C170.582 42.641 177.448 51.6744 176.573 61.6793L173.038 102.083C172.184 111.846 164.216 119.458 154.424 119.866L117.247 121.415C110.153 121.711 103.051 121.09 96.1159 119.567L59.7721 111.585C50.1998 109.483 43.6748 100.603 44.529 90.8395L48.0639 50.4362C48.9392 40.4313 57.2702 32.7276 67.3128 32.6365L106.433 32.2818C111.735 32.2337 117.03 32.6969 122.243 33.665Z" fill="#507DA6" stroke="black"/>
<path d="M87.6562 69.5174C86.9487 77.6046 81.1654 83.505 74.9362 82.96C68.7071 82.415 64.0362 75.6 64.7437 67.5129C65.4513 59.4257 71.2346 53.5254 77.4637 54.0703C83.6929 54.6153 88.3637 61.4303 87.6562 69.5174Z" fill="#87F2F8" stroke="black"/>
<path d="M150.416 75.0087C149.709 83.0958 143.926 88.9962 137.696 88.4512C131.467 87.9062 126.796 81.0912 127.504 73.0041C128.212 64.917 133.995 59.0166 140.224 59.5615C146.453 60.1065 151.124 66.9215 150.416 75.0087Z" fill="#87F2F8" stroke="black"/>
<path d="M117.911 97.2602L92.8916 95.0713" stroke="black"/>
<path d="M124.823 97.8648L92.9487 95.0762C92.9487 95.0762 91.97 110.048 108.072 111.457C124.173 112.865 124.823 97.8648 124.823 97.8648Z" fill="#A0F0FB" stroke="black"/>
<path d="M223.394 89.9256C222.52 99.9197 220.12 108.804 216.965 115.086C215.387 118.228 213.632 120.696 211.805 122.328C209.98 123.96 208.122 124.727 206.31 124.568C204.498 124.41 202.801 123.332 201.286 121.408C199.771 119.483 198.471 116.748 197.463 113.38C195.447 106.645 194.626 97.4793 195.501 87.4853C196.375 77.4912 198.775 68.607 201.93 62.325C203.508 59.1827 205.263 56.7153 207.089 55.0826C208.915 53.4508 210.773 52.6839 212.585 52.8424C214.397 53.001 216.094 54.0789 217.608 56.0029C219.123 57.928 220.423 60.6626 221.432 64.0313C223.448 70.7656 224.268 79.9316 223.394 89.9256Z" fill="#222E48" stroke="black"/>
<path d="M220.362 90.1624C219.86 95.8976 218.577 100.996 216.923 104.599C216.095 106.402 215.186 107.805 214.258 108.728C213.327 109.653 212.43 110.047 211.602 109.974C210.774 109.902 209.958 109.358 209.203 108.286C208.448 107.216 207.797 105.676 207.295 103.756C206.292 99.9209 205.913 94.6775 206.415 88.9422C206.917 83.2069 208.2 78.1089 209.854 74.5059C210.682 72.7023 211.591 71.2992 212.519 70.3764C213.45 69.4515 214.347 69.0578 215.175 69.1303C216.003 69.2027 216.819 69.7462 217.574 70.8187C218.329 71.8887 218.98 73.4283 219.482 75.3482C220.485 79.1836 220.864 84.4271 220.362 90.1624Z" fill="#2B3B5C" stroke="black"/>
</svg>
