<svg width="523" height="680" viewBox="0 0 523 680" fill="none" xmlns="http://www.w3.org/2000/svg">
<path d="M82.4668 316.706C68.5421 300.579 59.1799 283.99 55.285 270.22C53.3374 263.335 52.7631 257.176 53.65 252.142C54.5364 247.11 56.875 243.23 60.7268 240.836C64.5785 238.442 69.6444 237.72 75.5661 238.521C81.4914 239.322 88.2391 241.643 95.3898 245.295C109.69 252.598 125.509 265.174 139.434 281.301C153.358 297.428 162.72 314.017 166.615 327.787C168.563 334.672 169.137 340.831 168.25 345.865C167.364 350.897 165.025 354.777 161.174 357.171C157.322 359.565 152.256 360.287 146.334 359.486C140.409 358.686 133.661 356.364 126.51 352.712C112.211 345.409 96.3914 332.833 82.4668 316.706Z" fill="#A3B5C5" stroke="black"/>
<path d="M24.3398 212.404C20.5198 198.397 19.8514 185.097 21.8376 174.926C23.831 164.718 28.4537 157.831 35.0546 156.307C41.6554 154.784 49.2641 158.846 56.2596 166.979C63.2297 175.083 69.4651 187.097 73.2851 201.104C77.1051 215.111 77.7735 228.411 75.7873 238.582C73.7939 248.791 69.1712 255.677 62.5703 257.201C55.9695 258.725 48.3608 254.662 41.3654 246.529C34.3952 238.426 28.1598 226.411 24.3398 212.404Z" fill="#A3B5C5" stroke="black"/>
<path d="M94.1954 307.781C80.6495 292.092 70.9348 276.33 66.1686 263.54C63.7847 257.142 62.6483 251.514 62.8713 247.022C63.0945 242.526 64.6724 239.236 67.6301 237.397C70.5877 235.559 74.7614 235.275 79.8807 236.45C84.9965 237.624 90.9791 240.241 97.4493 244.098C110.386 251.811 125.17 264.422 138.716 280.111C152.261 295.799 161.976 311.562 166.742 324.352C169.126 330.749 170.263 336.378 170.04 340.87C169.816 345.365 168.238 348.656 165.281 350.494C162.323 352.332 158.149 352.617 153.03 351.441C147.914 350.267 141.932 347.651 135.462 343.793C122.525 336.081 107.741 323.469 94.1954 307.781Z" fill="#E0E9F1" stroke="black"/>
<path d="M33.219 208.698C29.4967 195.049 28.3679 182.199 29.5354 172.464C30.1194 167.595 31.2747 163.532 32.9461 160.541C34.6168 157.552 36.778 155.674 39.366 155.077C41.954 154.48 44.8225 155.196 47.8292 157.105C50.8371 159.015 53.9406 162.096 56.9537 166.134C62.9781 174.208 68.577 186.027 72.2993 199.675C76.0217 213.324 77.1505 226.175 75.9829 235.909C75.3989 240.778 74.2436 244.841 72.5722 247.832C70.9016 250.821 68.7404 252.699 66.1524 253.296C63.5643 253.894 60.6958 253.177 57.6892 251.268C54.6813 249.358 51.5778 246.278 48.5646 242.239C42.5402 234.165 36.9413 222.347 33.219 208.698Z" fill="#E0E9F1" stroke="black"/>
<path d="M43.8363 247.671C42.1839 240.513 48.3195 232.781 57.8672 230.577C67.415 228.372 76.3193 232.633 77.9718 239.79C79.6242 246.948 73.4886 254.68 63.9409 256.885C54.3931 259.089 45.4888 254.828 43.8363 247.671Z" fill="#2B3B5C" stroke="black"/>
<path d="M47.785 139.822C47.3179 135.87 47.6571 132.22 48.5616 129.519C49.4796 126.779 50.9089 125.193 52.5033 124.99C54.0976 124.787 55.854 125.968 57.383 128.397C58.8896 130.791 60.0689 134.248 60.5361 138.2C61.0032 142.152 60.664 145.802 59.7595 148.502C58.8415 151.243 57.4122 152.828 55.8178 153.031C54.2235 153.234 52.4671 152.053 50.9381 149.624C49.4315 147.231 48.2522 143.774 47.785 139.822Z" fill="#2B3B5C" stroke="black"/>
<path d="M31.7428 134.529C30.8562 130.689 30.8605 127.051 31.5615 124.283C32.2698 121.486 33.6413 119.723 35.3704 119.324C37.0996 118.924 39.1054 119.908 40.968 122.111C42.8116 124.292 44.4101 127.56 45.2967 131.4C46.1833 135.24 46.179 138.878 45.478 141.646C44.7698 144.443 43.3982 146.207 41.6691 146.606C39.94 147.005 37.9341 146.021 36.0715 143.818C34.2279 141.637 32.6294 138.37 31.7428 134.529Z" fill="#2B3B5C" stroke="black"/>
<path d="M18.4253 137.604C17.5374 133.758 17.4748 130.13 18.0707 127.382C18.6757 124.592 19.908 122.893 21.4476 122.538C22.9872 122.182 24.8393 123.169 26.6062 125.411C28.3464 127.62 29.8805 130.908 30.7685 134.754C31.6564 138.6 31.719 142.228 31.1232 144.976C30.5181 147.766 29.2858 149.465 27.7462 149.82C26.2066 150.176 24.3545 149.189 22.5876 146.947C20.8474 144.738 19.3133 141.45 18.4253 137.604Z" fill="#2B3B5C" stroke="black"/>
<path d="M7.85957 151.724C6.54701 147.967 6.09152 144.343 6.39639 141.532C6.70578 138.678 7.76679 136.847 9.28869 136.33C10.8106 135.814 12.7904 136.612 14.8168 138.673C16.8135 140.703 18.7185 143.835 20.031 147.592C21.3436 151.349 21.7991 154.973 21.4942 157.785C21.1848 160.638 20.1238 162.47 18.6019 162.986C17.08 163.503 15.1002 162.704 13.0738 160.643C11.0771 158.613 9.17214 155.481 7.85957 151.724Z" fill="#2B3B5C" stroke="black"/>
<path d="M13.4554 160.265C11.3053 150.952 19.2107 140.976 31.4292 138.155C43.6477 135.334 55.1262 140.835 57.2763 150.148C59.4264 159.461 51.521 169.437 39.3025 172.258C27.084 175.079 15.6055 169.578 13.4554 160.265Z" fill="#2B3B5C" stroke="black"/>
<path d="M326.5 653.5C326.5 660.571 321.684 667.06 313.71 671.809C305.747 676.551 294.714 679.5 282.5 679.5C270.286 679.5 259.253 676.551 251.29 671.809C243.316 667.06 238.5 660.571 238.5 653.5C238.5 646.429 243.316 639.94 251.29 635.191C259.253 630.449 270.286 627.5 282.5 627.5C294.714 627.5 305.747 630.449 313.71 635.191C321.684 639.94 326.5 646.429 326.5 653.5Z" fill="#2B3B5C" stroke="black"/>
<path d="M297.5 661.5C297.5 664.962 294.947 668.203 290.583 670.608C286.236 673.003 280.198 674.5 273.5 674.5C266.802 674.5 260.764 673.003 256.417 670.608C252.053 668.203 249.5 664.962 249.5 661.5C249.5 658.038 252.053 654.797 256.417 652.392C260.764 649.997 266.802 648.5 273.5 648.5C280.198 648.5 286.236 649.997 290.583 652.392C294.947 654.797 297.5 658.038 297.5 661.5Z" fill="#4C7BAB" stroke="black"/>
<rect x="156.5" y="290.5" width="267" height="357" rx="31.5" fill="#A3B5C5" stroke="black"/>
<rect x="156.5" y="293.294" width="227" height="333.206" rx="31.5" fill="white" stroke="black"/>
<mask id="mask0_159_1323" style="mask-type:alpha" maskUnits="userSpaceOnUse" x="165" y="293" width="228" height="335">
<rect x="165.5" y="293.5" width="227" height="333.206" rx="31.5" fill="#E0E9F1" stroke="black"/>
</mask>
<g mask="url(#mask0_159_1323)">
<rect x="156.5" y="293.294" width="227" height="333.206" rx="31.5" fill="#E0E9F1" stroke="black"/>
</g>
<rect x="195.5" y="354.5" width="136" height="162" rx="31.5" fill="#4C7BAB" stroke="black"/>
<rect x="195.5" y="354.5" width="131" height="157" rx="31.5" fill="#6EA2DC" stroke="black"/>
<rect x="210.5" y="371.5" width="100" height="87" rx="31.5" fill="#8CF1FD" stroke="black"/>
<ellipse cx="282.378" cy="296.5" rx="44.5" ry="6.5" fill="#2B3B5C"/>
<ellipse cx="404" cy="401" rx="15" ry="40" fill="#2B3B5C"/>
<ellipse cx="281.878" cy="277" rx="24" ry="26" fill="#2B3B5C"/>
<path d="M110.751 102.153C113.85 82.5844 120.476 65.4979 128.661 53.6922C136.869 41.8542 146.53 35.4694 155.693 36.9206C164.855 38.3718 172.071 47.4297 176.218 61.2245C180.355 74.9817 181.377 93.2795 178.277 112.849C175.178 132.418 168.551 149.504 160.366 161.31C152.159 173.148 142.498 179.533 133.335 178.081C124.173 176.63 116.957 167.572 112.809 153.777C108.673 140.02 107.651 121.722 110.751 102.153Z" fill="#222E48" stroke="black"/>
<path d="M308.744 7.99461C248.493 7.53901 209.169 0.711484 174.382 30.3404C139.595 59.9693 117.678 191.665 142.603 225.6C167.528 259.535 265.47 269.447 281.425 272.42C297.381 275.392 373.223 266.927 405.752 247.946C438.281 228.964 445.007 89.2741 445.893 59.0707C446.779 28.8673 368.994 8.45021 308.744 7.99461Z" fill="#A3B5C5" stroke="black"/>
<path d="M290.499 2.00117C236.465 1.57301 201.197 -4.84332 169.999 23.0012C138.801 50.8457 119.146 174.61 141.499 206.501C163.853 238.393 251.69 247.708 265.999 250.501C280.308 253.294 348.326 245.34 377.499 227.501C406.672 209.662 412.704 78.3856 413.499 50.0012C414.294 21.6168 344.534 2.42933 290.499 2.00117Z" fill="white" stroke="black"/>
<mask id="mask1_159_1323" style="mask-type:alpha" maskUnits="userSpaceOnUse" x="133" y="9" width="314" height="265">
<path d="M309.717 10.9824C249.85 10.532 210.776 3.78144 176.211 33.0762C141.646 62.3709 119.868 192.581 144.635 226.133C169.401 259.686 266.719 269.486 282.572 272.425C298.426 275.364 373.785 266.995 406.107 248.227C438.429 229.459 445.112 91.3452 445.993 61.4824C446.873 31.6197 369.584 11.4329 309.717 10.9824Z" fill="#A3B5C5" stroke="black"/>
</mask>
<g mask="url(#mask1_159_1323)">
<path d="M290.499 2.00117C236.465 1.57301 201.197 -4.84332 169.999 23.0012C138.801 50.8457 119.146 174.61 141.499 206.501C163.853 238.393 251.69 247.708 265.999 250.501C280.308 253.294 348.326 245.34 377.499 227.501C406.672 209.662 412.704 78.3856 413.499 50.0012C414.294 21.6168 344.534 2.42933 290.499 2.00117Z" fill="#E0E9F1" stroke="black"/>
</g>
<path d="M286.903 36.707C244.689 36.3833 217.137 31.5321 192.764 52.5842C168.391 73.6364 153.035 167.209 170.498 191.321C187.962 215.433 256.584 222.476 267.762 224.588C278.941 226.7 332.079 220.686 354.87 207.198C377.661 193.711 382.374 94.4582 382.994 72.9979C383.615 51.5375 329.116 37.0307 286.903 36.707Z" fill="#0E161E" stroke="black"/>
<path d="M286.087 42.6622C246.368 42.359 220.444 37.8159 197.511 57.5313C174.578 77.2468 160.13 164.879 176.561 187.46C192.993 210.041 257.56 216.636 268.078 218.614C278.596 220.592 328.594 214.96 350.038 202.329C371.483 189.698 375.917 96.7466 376.501 76.6488C377.085 56.5511 325.807 42.9653 286.087 42.6622Z" fill="#507DA6" stroke="black"/>
<path d="M243.5 129.501C243.5 147.823 231.324 162.501 216.5 162.501C201.676 162.501 189.5 147.823 189.5 129.501C189.5 111.179 201.676 96.501 216.5 96.501C231.324 96.501 243.5 111.179 243.5 129.501Z" fill="#87F2F8" stroke="black"/>
<path d="M359.5 140.501C359.5 158.823 347.324 173.501 332.5 173.501C317.676 173.501 305.5 158.823 305.5 140.501C305.5 122.179 317.676 107.501 332.5 107.501C347.324 107.501 359.5 122.179 359.5 140.501Z" fill="#87F2F8" stroke="black"/>
<path d="M296.5 178.001L247.5 174.501C247.5 174.501 248.5 196.001 272.5 197.001C296.5 198.001 296.5 178.001 296.5 178.001Z" fill="#A0F0FB" stroke="black"/>
<path d="M479.277 168.849C476.178 188.418 469.551 205.504 461.366 217.31C453.159 229.148 443.497 235.533 434.335 234.081C425.173 232.63 417.957 223.572 413.809 209.777C409.673 196.02 408.651 177.722 411.751 158.153C414.85 138.584 421.476 121.498 429.661 109.692C437.869 97.8542 447.53 91.4694 456.693 92.9206C465.855 94.3718 473.071 103.43 477.218 117.224C481.355 130.982 482.376 149.28 479.277 168.849Z" fill="#222E48" stroke="black"/>
<path d="M471.65 165.84C469.15 181.624 464.904 195.579 460.072 205.38C457.655 210.283 455.105 214.12 452.573 216.628C450.033 219.144 447.593 220.247 445.37 219.895C443.148 219.543 441.168 217.74 439.53 214.562C437.897 211.395 436.657 206.957 435.873 201.547C434.307 190.733 434.581 176.149 437.081 160.365C439.581 144.582 443.827 130.626 448.658 120.825C451.075 115.922 453.626 112.085 456.157 109.578C458.698 107.061 461.137 105.959 463.36 106.311C465.583 106.663 467.563 108.465 469.201 111.644C470.834 114.811 472.074 119.248 472.858 124.658C474.424 135.472 474.15 150.057 471.65 165.84Z" fill="#2B3B5C" stroke="black"/>
<ellipse cx="277.5" cy="266.501" rx="44.5" ry="6.5" transform="rotate(3 277.5 266.501)" fill="#2B3B5C"/>
<path d="M485.327 429.044C495.267 447.891 500.657 466.16 501.355 480.453C501.704 487.601 500.878 493.73 498.881 498.436C496.886 503.14 493.734 506.394 489.443 507.861C485.151 509.327 480.053 508.89 474.463 506.778C468.869 504.665 462.817 500.885 456.671 495.718C444.38 485.386 431.796 469.574 421.856 450.728C411.916 431.881 406.525 413.612 405.828 399.319C405.479 392.171 406.305 386.042 408.301 381.336C410.297 376.632 413.448 373.378 417.74 371.911C422.031 370.445 427.13 370.882 432.72 372.994C438.313 375.107 444.366 378.887 450.512 384.054C462.802 394.386 475.387 410.198 485.327 429.044Z" fill="#A3B5C5" stroke="black"/>
<path d="M518.501 543.749C519.072 558.256 516.732 571.365 512.509 580.829C508.27 590.327 502.217 595.997 495.442 595.997C488.668 595.997 482.168 590.327 477.181 580.829C472.212 571.365 468.84 558.256 468.268 543.749C467.697 529.241 470.038 516.132 474.261 506.668C478.5 497.17 484.553 491.5 491.328 491.5C498.102 491.5 504.602 497.17 509.589 506.668C514.557 516.132 517.93 529.241 518.501 543.749Z" fill="#A3B5C5" stroke="black"/>
<path d="M471.891 435.103C481.56 453.437 487.48 470.98 489.247 484.515C490.131 491.284 489.972 497.024 488.744 501.351C487.516 505.681 485.238 508.533 481.943 509.658C478.647 510.784 474.517 510.122 469.793 507.826C465.072 505.531 459.832 501.635 454.395 496.421C443.525 485.996 431.957 470.382 422.287 452.049C412.618 433.715 406.698 416.172 404.931 402.637C404.047 395.868 404.206 390.128 405.434 385.801C406.663 381.471 408.941 378.619 412.236 377.494C415.531 376.368 419.662 377.03 424.386 379.326C429.106 381.621 434.347 385.517 439.783 390.731C450.653 401.156 462.221 416.77 471.891 435.103Z" fill="#E0E9F1" stroke="black"/>
<path d="M509.016 545.363C509.572 559.5 507.782 572.275 504.454 581.497C502.79 586.11 500.75 589.809 498.449 592.347C496.148 594.884 493.62 596.227 490.964 596.227C488.308 596.227 485.674 594.884 483.174 592.347C480.673 589.809 478.342 586.11 476.315 581.497C472.261 572.275 469.464 559.5 468.907 545.363C468.351 531.227 470.142 518.452 473.469 509.229C475.133 504.617 477.173 500.918 479.474 498.38C481.775 495.843 484.303 494.5 486.959 494.5C489.615 494.5 492.249 495.843 494.749 498.38C497.25 500.918 499.581 504.617 501.609 509.229C505.662 518.452 508.459 531.227 509.016 545.363Z" fill="#E0E9F1" stroke="black"/>
<path d="M507.438 505C507.438 512.346 499.72 518.5 489.921 518.5C480.122 518.5 472.404 512.346 472.404 505C472.404 497.655 480.122 491.5 489.921 491.5C499.72 491.5 507.438 497.655 507.438 505Z" fill="#2B3B5C" stroke="black"/>
<path d="M479.329 609.197C478.895 613.153 477.744 616.633 476.255 619.061C474.744 621.525 472.995 622.748 471.395 622.587C469.796 622.426 468.351 620.881 467.407 618.17C466.478 615.499 466.106 611.865 466.54 607.909C466.974 603.953 468.126 600.473 469.614 598.046C471.125 595.582 472.875 594.358 474.474 594.519C476.073 594.68 477.519 596.226 478.462 598.937C479.392 601.608 479.763 605.242 479.329 609.197Z" fill="#2B3B5C" stroke="black"/>
<path d="M493.77 617.963C493.77 621.904 492.947 625.447 491.641 627.987C490.322 630.553 488.589 631.963 486.815 631.963C485.04 631.963 483.307 630.553 481.988 627.987C480.682 625.447 479.859 621.904 479.859 617.963C479.859 614.021 480.682 610.478 481.988 607.938C483.307 605.372 485.04 603.963 486.815 603.963C488.589 603.963 490.322 605.372 491.641 607.938C492.947 610.478 493.77 614.021 493.77 617.963Z" fill="#2B3B5C" stroke="black"/>
<path d="M507.438 617.963C507.438 621.91 506.682 625.459 505.484 628.003C504.266 630.585 502.684 631.963 501.104 631.963C499.524 631.963 497.941 630.585 496.724 628.003C495.525 625.459 494.77 621.91 494.77 617.963C494.77 614.015 495.525 610.466 496.724 607.923C497.941 605.34 499.524 603.963 501.104 603.963C502.684 603.963 504.266 605.34 505.484 607.923C506.682 610.466 507.438 614.015 507.438 617.963Z" fill="#2B3B5C" stroke="black"/>
<path d="M520.909 606.581C521.343 610.537 520.971 614.17 520.042 616.842C519.098 619.553 517.653 621.098 516.053 621.259C514.454 621.42 512.705 620.197 511.194 617.733C509.705 615.305 508.554 611.825 508.12 607.869C507.686 603.914 508.057 600.28 508.987 597.609C509.93 594.898 511.376 593.352 512.975 593.191C514.574 593.03 516.324 594.254 517.835 596.717C519.323 599.145 520.475 602.625 520.909 606.581Z" fill="#2B3B5C" stroke="black"/>
<path d="M517.378 597C517.378 606.559 507.431 614.5 494.891 614.5C482.351 614.5 472.404 606.559 472.404 597C472.404 587.442 482.351 579.5 494.891 579.5C507.431 579.5 517.378 587.442 517.378 597Z" fill="#2B3B5C" stroke="black"/>
</svg>
