<svg width="211" height="140" viewBox="0 0 211 140" fill="none" xmlns="http://www.w3.org/2000/svg">
<path d="M28.5 70.5C28.5 80.5322 26.8837 89.5918 24.2884 96.1248C22.9901 99.3928 21.4567 102.004 19.7796 103.789C18.1033 105.574 16.3189 106.5 14.5 106.5C12.6811 106.5 10.8967 105.574 9.2204 103.789C7.54325 102.004 6.00986 99.3928 4.71163 96.1248C2.11631 89.5918 0.5 80.5322 0.5 70.5C0.5 60.4678 2.11631 51.4082 4.71163 44.8752C6.00986 41.6072 7.54325 38.9963 9.2204 37.2107C10.8967 35.4259 12.6811 34.5 14.5 34.5C16.3189 34.5 18.1033 35.4259 19.7796 37.2107C21.4567 38.9963 22.9901 41.6072 24.2884 44.8752C26.8837 51.4082 28.5 60.4678 28.5 70.5Z" fill="#222E48" stroke="black"/>
<path d="M210.5 70.5C210.5 80.5322 208.884 89.5918 206.288 96.1248C204.99 99.3928 203.457 102.004 201.78 103.789C200.103 105.574 198.319 106.5 196.5 106.5C194.681 106.5 192.897 105.574 191.22 103.789C189.543 102.004 188.01 99.3928 186.712 96.1248C184.116 89.5918 182.5 80.5322 182.5 70.5C182.5 60.4678 184.116 51.4082 186.712 44.8752C188.01 41.6072 189.543 38.9963 191.22 37.2107C192.897 35.4259 194.681 34.5 196.5 34.5C198.319 34.5 200.103 35.4259 201.78 37.2107C203.457 38.9963 204.99 41.6072 206.288 44.8752C208.884 51.4082 210.5 60.4678 210.5 70.5Z" fill="#222E48" stroke="black"/>
<path d="M113.607 1.42791L177.954 8.26097C187.871 9.31402 195.395 17.6795 195.395 27.6519V109.684C195.395 119.391 188.255 127.62 178.645 128.989L116.53 137.838C108.812 138.937 100.978 138.937 93.2606 137.838L31.1452 128.989C21.5351 127.62 14.3953 119.391 14.3953 109.684L14.3953 27.6519C14.3953 17.6795 21.9194 9.31402 31.8361 8.26097L96.1836 1.42791C101.975 0.812904 107.815 0.812905 113.607 1.42791Z" fill="#E0E9F1" stroke="black"/>
<path d="M110.622 20.3269L151.84 24.4574C161.806 25.4562 169.395 33.8437 169.395 43.8602V90.4346C169.395 100.2 162.172 108.46 152.493 109.761L113.387 115.018C106.092 115.999 98.6986 115.999 91.4036 115.018L52.2972 109.761C42.6188 108.46 35.3953 100.2 35.3953 90.4346V43.8602C35.3953 33.8437 42.9842 25.4562 52.9509 24.4574L94.169 20.3269C99.6395 19.7787 105.151 19.7787 110.622 20.3269Z" fill="#0E161E" stroke="black"/>
<path d="M110.831 23.2691L149.771 27.0321C159.767 27.998 167.395 36.3986 167.395 46.4416V86.9993C167.395 96.7998 160.121 105.078 150.402 106.338L113.501 111.121C106.46 112.034 99.3306 112.034 92.2895 111.121L55.3885 106.338C45.6693 105.078 38.3953 96.7998 38.3953 86.9993V46.4416C38.3953 36.3986 46.0232 27.9981 56.0197 27.0321L94.96 23.2691C100.238 22.7591 105.553 22.7591 110.831 23.2691Z" fill="#507DA6" stroke="black"/>
<path d="M82.5 58C82.5 66.118 77.2529 72.5 71 72.5C64.7471 72.5 59.5 66.118 59.5 58C59.5 49.882 64.7471 43.5 71 43.5C77.2529 43.5 82.5 49.882 82.5 58Z" fill="#87F2F8" stroke="black"/>
<path d="M145.5 58C145.5 66.118 140.253 72.5 134 72.5C127.747 72.5 122.5 66.118 122.5 58C122.5 49.882 127.747 43.5 134 43.5C140.253 43.5 145.5 49.882 145.5 58Z" fill="#87F2F8" stroke="black"/>
<path d="M115.057 83H89.9426" stroke="black"/>
<path d="M118.996 83H87C87 83 87.3299 98 103.493 98C119.656 98 118.996 83 118.996 83Z" fill="#A0F0FB" stroke="black"/>
</svg>
