<svg width="544" height="680" viewBox="0 0 544 680" fill="none" xmlns="http://www.w3.org/2000/svg">
<path d="M118.106 342.594C100.026 324.319 87.1856 305.076 81.029 288.751C77.9503 280.588 76.5514 273.178 76.9861 266.994C77.4207 260.814 79.6828 255.893 83.8874 252.642C88.0921 249.39 93.9086 248.063 100.895 248.505C107.885 248.947 116.006 251.159 124.747 254.943C142.227 262.511 162.091 276.323 180.17 294.598C198.25 312.873 211.09 332.116 217.247 348.441C220.326 356.604 221.725 364.014 221.29 370.198C220.855 376.378 218.593 381.299 214.389 384.55C210.184 387.802 204.367 389.129 197.381 388.687C190.391 388.245 182.27 386.033 173.529 382.249C156.049 374.681 136.185 360.869 118.106 342.594Z" fill="#A3B5C5" stroke="black"/>
<path d="M38.2837 221.592C32.1868 204.976 29.833 188.93 30.9367 176.43C32.0445 163.883 36.6064 155.105 44.1216 152.663C51.6368 150.221 60.9828 154.481 70.0808 163.711C79.1458 172.907 87.8146 186.902 93.9115 203.518C100.008 220.134 102.362 236.18 101.259 248.68C100.151 261.226 95.5888 270.005 88.0736 272.447C80.5584 274.888 71.2125 270.629 62.1144 261.399C53.0494 252.202 44.3806 238.208 38.2837 221.592Z" fill="#A3B5C5" stroke="black"/>
<path d="M127.986 328.049C111.136 311.017 98.3223 293.736 91.2191 279.575C87.6662 272.492 85.5549 266.215 85.0665 261.154C84.5771 256.083 85.7232 252.33 88.5377 250.154C91.3522 247.977 95.711 247.472 101.331 248.576C106.94 249.678 113.695 252.363 121.163 256.419C136.092 264.528 153.759 278.057 170.608 295.088C187.458 312.119 200.272 329.4 207.375 343.561C210.928 350.644 213.039 356.921 213.527 361.982C214.017 367.054 212.871 370.806 210.056 372.983C207.242 375.159 202.883 375.664 197.263 374.56C191.654 373.459 184.899 370.773 177.431 366.717C162.502 358.608 144.835 345.08 127.986 328.049Z" fill="#E0E9F1" stroke="black"/>
<path d="M47.2164 213.771C41.5328 198.282 38.577 183.569 38.3804 172.313C38.282 166.682 38.8748 161.944 40.1416 158.414C41.4103 154.879 43.3247 152.629 45.8201 151.818C48.3156 151.007 51.2974 151.666 54.6138 153.712C57.9256 155.754 61.4984 159.138 65.113 163.627C72.339 172.599 79.6597 185.893 85.3432 201.383C91.0268 216.872 93.9826 231.585 94.1792 242.841C94.2776 248.472 93.6848 253.21 92.418 256.74C91.1494 260.275 89.235 262.525 86.7395 263.336C84.244 264.147 81.2622 263.488 77.9458 261.442C74.634 259.4 71.0612 256.016 67.4466 251.527C60.2206 242.555 52.9 229.261 47.2164 213.771Z" fill="#E0E9F1" stroke="black"/>
<path d="M65.087 262.51C62.29 253.902 68.5715 243.973 79.393 240.457C90.2144 236.941 101.132 241.281 103.929 249.889C106.726 258.498 100.445 268.426 89.6233 271.942C78.8018 275.459 67.884 271.118 65.087 262.51Z" fill="#2B3B5C" stroke="black"/>
<path d="M56.9057 131.71C55.8926 126.956 55.8529 122.492 56.5879 119.124C57.3337 115.707 58.8209 113.623 60.6837 113.228C62.5465 112.833 64.7551 114.134 66.8299 116.953C68.8748 119.731 70.6593 123.826 71.6724 128.579C72.6854 133.333 72.7251 137.797 71.9902 141.165C71.2444 144.582 69.7572 146.666 67.8944 147.061C66.0316 147.456 63.823 146.155 61.7482 143.336C59.7033 140.557 57.9188 136.463 56.9057 131.71Z" fill="#2B3B5C" stroke="black"/>
<path d="M37.6616 126.745C36.1728 122.163 35.7439 117.742 36.2332 114.309C36.7276 110.839 38.1244 108.549 40.1158 107.902C42.1072 107.255 44.5832 108.287 47.0226 110.803C49.4364 113.293 51.6879 117.122 53.1767 121.704C54.6655 126.286 55.0944 130.707 54.6051 134.14C54.1107 137.609 52.7139 139.899 50.7225 140.546C48.7311 141.193 46.2551 140.162 43.8157 137.645C41.4019 135.155 39.1503 131.327 37.6616 126.745Z" fill="#2B3B5C" stroke="black"/>
<path d="M22.5677 131.649C21.0772 127.062 20.5716 122.66 20.9404 119.262C21.3148 115.812 22.5559 113.608 24.3358 113.029C26.1158 112.451 28.4154 113.505 30.746 116.076C33.0419 118.608 35.2202 122.466 36.7107 127.054C38.2012 131.641 38.7067 136.043 38.3379 139.441C37.9635 142.891 36.7225 145.095 34.9425 145.673C33.1625 146.252 30.863 145.198 28.5324 142.627C26.2365 140.095 24.0582 136.236 22.5677 131.649Z" fill="#2B3B5C" stroke="black"/>
<path d="M11.9775 149.676C10.0031 145.235 9.04007 140.874 9.06133 137.424C9.0829 133.924 10.1052 131.573 11.8443 130.798C13.5835 130.022 16.0116 130.834 18.6234 133.16C21.1975 135.453 23.7895 139.088 25.7639 143.529C27.7382 147.97 28.7013 152.331 28.68 155.781C28.6584 159.281 27.6361 161.632 25.897 162.407C24.1578 163.183 21.7297 162.371 19.1179 160.045C16.5439 157.752 13.9518 154.117 11.9775 149.676Z" fill="#2B3B5C" stroke="black"/>
<path d="M19.4803 159.5C15.8508 148.329 23.9203 135.529 37.7695 131.029C51.6186 126.529 65.6706 132.142 69.3001 143.312C72.9296 154.483 64.8601 167.283 51.011 171.782C37.1619 176.282 23.1098 170.67 19.4803 159.5Z" fill="#2B3B5C" stroke="black"/>
<path d="M347.5 653.5C347.5 660.571 342.684 667.06 334.71 671.809C326.747 676.551 315.714 679.5 303.5 679.5C291.286 679.5 280.253 676.551 272.29 671.809C264.316 667.06 259.5 660.571 259.5 653.5C259.5 646.429 264.316 639.94 272.29 635.191C280.253 630.449 291.286 627.5 303.5 627.5C315.714 627.5 326.747 630.449 334.71 635.191C342.684 639.94 347.5 646.429 347.5 653.5Z" fill="#2B3B5C" stroke="black"/>
<path d="M318.5 661.5C318.5 664.962 315.947 668.203 311.583 670.608C307.236 673.003 301.198 674.5 294.5 674.5C287.802 674.5 281.764 673.003 277.417 670.608C273.053 668.203 270.5 664.962 270.5 661.5C270.5 658.038 273.053 654.797 277.417 652.392C281.764 649.997 287.802 648.5 294.5 648.5C301.198 648.5 307.236 649.997 311.583 652.392C315.947 654.797 318.5 658.038 318.5 661.5Z" fill="#4C7BAB" stroke="black"/>
<rect x="177.5" y="290.5" width="267" height="357" rx="31.5" fill="#A3B5C5" stroke="black"/>
<rect x="177.5" y="293.294" width="227" height="333.206" rx="31.5" fill="#E0E9F1" stroke="black"/>
<rect x="216.5" y="354.5" width="136" height="162" rx="31.5" fill="#4C7BAB" stroke="black"/>
<rect x="216.5" y="354.5" width="131" height="157" rx="31.5" fill="#6EA2DC" stroke="black"/>
<rect x="231.5" y="371.5" width="100" height="87" rx="31.5" fill="#8CF1FD" stroke="black"/>
<ellipse cx="303.378" cy="296.5" rx="44.5" ry="6.5" fill="#2B3B5C"/>
<ellipse cx="425" cy="401" rx="15" ry="40" fill="#2B3B5C"/>
<ellipse cx="302.878" cy="277" rx="24" ry="26" fill="#2B3B5C"/>
<path d="M131.75 102.153C134.85 82.5844 141.476 65.4979 149.661 53.6922C157.868 41.8542 167.53 35.4694 176.693 36.9206C185.855 38.3718 193.071 47.4297 197.218 61.2245C201.354 74.9817 202.376 93.2795 199.277 112.849C196.177 132.418 189.551 149.504 181.366 161.31C173.159 173.148 163.497 179.533 154.335 178.081C145.172 176.63 137.957 167.572 133.809 153.777C129.673 140.02 128.651 121.722 131.75 102.153Z" fill="#222E48" stroke="black"/>
<path d="M329.744 7.99461C269.493 7.53901 230.168 0.711484 195.382 30.3404C160.595 59.9693 138.678 191.665 163.603 225.6C188.528 259.535 286.47 269.447 302.425 272.42C318.38 275.392 394.223 266.927 426.752 247.946C459.281 228.964 466.007 89.2741 466.893 59.0707C467.779 28.8673 389.994 8.45021 329.744 7.99461Z" fill="#A3B5C5" stroke="black"/>
<path d="M311.499 2.00117C257.464 1.57301 222.197 -4.84332 190.999 23.0012C159.801 50.8457 140.146 174.61 162.499 206.501C184.853 238.393 272.69 247.708 286.999 250.501C301.308 253.294 369.326 245.34 398.499 227.501C427.672 209.662 433.704 78.3856 434.499 50.0012C435.294 21.6168 365.534 2.42933 311.499 2.00117Z" fill="#E0E9F1" stroke="black"/>
<path d="M307.902 36.707C265.689 36.3833 238.136 31.5321 213.764 52.5842C189.391 73.6364 174.035 167.209 191.498 191.321C208.962 215.433 277.583 222.476 288.762 224.588C299.941 226.7 353.079 220.686 375.87 207.198C398.661 193.711 403.373 94.4582 403.994 72.9979C404.615 51.5375 350.116 37.0307 307.902 36.707Z" fill="#0E161E" stroke="black"/>
<path d="M307.087 42.6622C267.368 42.359 241.444 37.8159 218.511 57.5313C195.578 77.2468 181.13 164.879 197.561 187.46C213.993 210.041 278.56 216.636 289.078 218.614C299.596 220.592 349.594 214.96 371.038 202.329C392.482 189.698 396.917 96.7466 397.501 76.6488C398.085 56.5511 346.806 42.9653 307.087 42.6622Z" fill="#507DA6" stroke="black"/>
<path d="M264.5 129.501C264.5 147.823 252.323 162.501 237.5 162.501C222.676 162.501 210.5 147.823 210.5 129.501C210.5 111.179 222.676 96.501 237.5 96.501C252.323 96.501 264.5 111.179 264.5 129.501Z" fill="#87F2F8" stroke="black"/>
<path d="M380.5 140.501C380.5 158.823 368.323 173.501 353.5 173.501C338.676 173.501 326.5 158.823 326.5 140.501C326.5 122.179 338.676 107.501 353.5 107.501C368.323 107.501 380.5 122.179 380.5 140.501Z" fill="#87F2F8" stroke="black"/>
<path d="M317.5 178.001L268.5 174.501C268.5 174.501 269.5 196.001 293.5 197.001C317.5 198.001 317.5 178.001 317.5 178.001Z" fill="#A0F0FB" stroke="black"/>
<path d="M500.277 168.849C497.178 188.418 490.551 205.504 482.366 217.31C474.159 229.148 464.497 235.533 455.335 234.081C446.172 232.63 438.957 223.572 434.809 209.777C430.673 196.02 429.651 177.722 432.751 158.153C435.85 138.584 442.476 121.498 450.661 109.692C458.868 97.8542 468.53 91.4694 477.693 92.9206C486.855 94.3718 494.071 103.43 498.218 117.224C502.354 130.982 503.376 149.28 500.277 168.849Z" fill="#222E48" stroke="black"/>
<path d="M492.65 165.84C490.15 181.624 485.904 195.579 481.072 205.38C478.655 210.283 476.105 214.12 473.573 216.628C471.033 219.144 468.593 220.247 466.37 219.895C464.147 219.543 462.168 217.74 460.529 214.562C458.897 211.395 457.657 206.957 456.873 201.547C455.307 190.733 455.581 176.149 458.081 160.365C460.581 144.582 464.827 130.626 469.658 120.825C472.075 115.922 474.626 112.085 477.157 109.578C479.697 107.061 482.137 105.959 484.36 106.311C486.583 106.663 488.563 108.465 490.201 111.644C491.834 114.811 493.074 119.248 493.857 124.658C495.424 135.472 495.15 150.057 492.65 165.84Z" fill="#2B3B5C" stroke="black"/>
<ellipse cx="298.5" cy="266.501" rx="44.5" ry="6.5" transform="rotate(3 298.5 266.501)" fill="#2B3B5C"/>
<path d="M506.327 429.044C516.267 447.891 521.657 466.16 522.355 480.453C522.704 487.601 521.878 493.73 519.881 498.436C517.886 503.14 514.734 506.394 510.443 507.861C506.151 509.327 501.053 508.89 495.463 506.778C489.869 504.665 483.817 500.885 477.671 495.718C465.38 485.386 452.796 469.574 442.856 450.728C432.916 431.881 427.525 413.612 426.828 399.319C426.479 392.171 427.305 386.042 429.301 381.336C431.297 376.632 434.448 373.378 438.74 371.911C443.031 370.445 448.13 370.882 453.72 372.994C459.313 375.107 465.366 378.887 471.512 384.054C483.802 394.386 496.387 410.198 506.327 429.044Z" fill="#A3B5C5" stroke="black"/>
<path d="M539.501 543.749C540.072 558.256 537.732 571.365 533.509 580.829C529.27 590.327 523.217 595.997 516.442 595.997C509.668 595.997 503.168 590.327 498.181 580.829C493.212 571.365 489.84 558.256 489.268 543.749C488.697 529.241 491.038 516.132 495.261 506.668C499.5 497.17 505.553 491.5 512.328 491.5C519.102 491.5 525.602 497.17 530.589 506.668C535.557 516.132 538.93 529.241 539.501 543.749Z" fill="#A3B5C5" stroke="black"/>
<path d="M494.363 437.895C503.628 455.461 509.52 472.195 511.567 485.042C512.592 491.468 512.649 496.894 511.705 500.957C510.759 505.028 508.831 507.647 505.971 508.624C503.111 509.601 499.432 508.898 495.136 506.617C490.849 504.341 486.039 500.539 481.007 495.482C470.946 485.372 460.082 470.337 450.818 452.771C441.553 435.205 435.661 418.471 433.614 405.624C432.59 399.198 432.532 393.772 433.476 389.709C434.422 385.638 436.35 383.02 439.21 382.043C442.07 381.065 445.749 381.768 450.045 384.049C454.333 386.325 459.142 390.127 464.175 395.184C474.235 405.294 485.099 420.329 494.363 437.895Z" fill="#E0E9F1" stroke="black"/>
<path d="M530.103 547.59C530.636 561.116 529.142 573.341 526.312 582.166C524.896 586.58 523.155 590.117 521.187 592.541C519.217 594.968 517.066 596.227 514.826 596.227C512.586 596.227 510.336 594.968 508.175 592.541C506.016 590.117 503.995 586.58 502.232 582.166C498.707 573.341 496.25 561.116 495.718 547.59C495.185 534.063 496.679 521.839 499.509 513.014C500.925 508.599 502.667 505.062 504.635 502.638C506.605 500.212 508.756 498.952 510.996 498.952C513.236 498.952 515.486 500.212 517.647 502.638C519.806 505.062 521.826 508.599 523.589 513.014C527.115 521.839 529.571 534.063 530.103 547.59Z" fill="#E0E9F1" stroke="black"/>
<path d="M528.438 505C528.438 512.346 520.72 518.5 510.921 518.5C501.122 518.5 493.404 512.346 493.404 505C493.404 497.655 501.122 491.5 510.921 491.5C520.72 491.5 528.438 497.655 528.438 505Z" fill="#2B3B5C" stroke="black"/>
<path d="M500.329 609.197C499.895 613.153 498.744 616.633 497.255 619.061C495.744 621.525 493.995 622.748 492.395 622.587C490.796 622.426 489.351 620.881 488.407 618.17C487.478 615.499 487.106 611.865 487.54 607.909C487.974 603.953 489.126 600.473 490.614 598.046C492.125 595.582 493.875 594.358 495.474 594.519C497.073 594.68 498.519 596.226 499.462 598.937C500.392 601.608 500.763 605.242 500.329 609.197Z" fill="#2B3B5C" stroke="black"/>
<path d="M514.77 617.963C514.77 621.904 513.947 625.447 512.641 627.987C511.322 630.553 509.589 631.963 507.815 631.963C506.04 631.963 504.307 630.553 502.988 627.987C501.682 625.447 500.859 621.904 500.859 617.963C500.859 614.021 501.682 610.478 502.988 607.938C504.307 605.372 506.04 603.963 507.815 603.963C509.589 603.963 511.322 605.372 512.641 607.938C513.947 610.478 514.77 614.021 514.77 617.963Z" fill="#2B3B5C" stroke="black"/>
<path d="M528.438 617.963C528.438 621.91 527.682 625.459 526.484 628.003C525.266 630.585 523.684 631.963 522.104 631.963C520.524 631.963 518.941 630.585 517.724 628.003C516.525 625.459 515.77 621.91 515.77 617.963C515.77 614.015 516.525 610.466 517.724 607.923C518.941 605.34 520.524 603.963 522.104 603.963C523.684 603.963 525.266 605.34 526.484 607.923C527.682 610.466 528.438 614.015 528.438 617.963Z" fill="#2B3B5C" stroke="black"/>
<path d="M541.909 606.581C542.343 610.537 541.971 614.17 541.042 616.842C540.098 619.553 538.653 621.098 537.053 621.259C535.454 621.42 533.705 620.197 532.194 617.733C530.705 615.305 529.554 611.825 529.12 607.869C528.686 603.914 529.057 600.28 529.987 597.609C530.93 594.898 532.376 593.352 533.975 593.191C535.574 593.03 537.324 594.254 538.835 596.717C540.323 599.145 541.475 602.625 541.909 606.581Z" fill="#2B3B5C" stroke="black"/>
<path d="M538.378 597C538.378 606.559 528.431 614.5 515.891 614.5C503.351 614.5 493.404 606.559 493.404 597C493.404 587.442 503.351 579.5 515.891 579.5C528.431 579.5 538.378 587.442 538.378 597Z" fill="#2B3B5C" stroke="black"/>
</svg>
