<svg width="624" height="329" viewBox="0 0 624 329" fill="none" xmlns="http://www.w3.org/2000/svg">
<rect x="0.5" y="8.5" width="613" height="320" rx="7.5" fill="white" stroke="black"/>
<rect x="10.5" y="0.5" width="613" height="320" rx="7.5" fill="white" stroke="black"/>
<rect x="20.5" y="92.5" width="528" height="166" rx="7.5" fill="white" stroke="black"/>
<path d="M30.2727 69.7273H33.3636L35.9545 73.1364L36.6364 74.0455L40.5 79.1818H37.4091L34.8636 75.7727L34.2273 74.9091L30.2727 69.7273ZM41.4545 65.3636C41.4545 67.8182 41.0114 69.9394 40.125 71.7273C39.2386 73.5152 38.0227 74.8939 36.4773 75.8636C34.9318 76.8333 33.1667 77.3182 31.1818 77.3182C29.197 77.3182 27.4318 76.8333 25.8864 75.8636C24.3409 74.8939 23.125 73.5152 22.2386 71.7273C21.3523 69.9394 20.9091 67.8182 20.9091 65.3636C20.9091 62.9091 21.3523 60.7879 22.2386 59C23.125 57.2121 24.3409 55.8333 25.8864 54.8636C27.4318 53.8939 29.197 53.4091 31.1818 53.4091C33.1667 53.4091 34.9318 53.8939 36.4773 54.8636C38.0227 55.8333 39.2386 57.2121 40.125 59C41.0114 60.7879 41.4545 62.9091 41.4545 65.3636ZM38.7273 65.3636C38.7273 63.3485 38.3902 61.6477 37.7159 60.2614C37.0492 58.875 36.1439 57.8258 35 57.1136C33.8636 56.4015 32.5909 56.0455 31.1818 56.0455C29.7727 56.0455 28.4962 56.4015 27.3523 57.1136C26.2159 57.8258 25.3106 58.875 24.6364 60.2614C23.9697 61.6477 23.6364 63.3485 23.6364 65.3636C23.6364 67.3788 23.9697 69.0795 24.6364 70.4659C25.3106 71.8523 26.2159 72.9015 27.3523 73.6136C28.4962 74.3258 29.7727 74.6818 31.1818 74.6818C32.5909 74.6818 33.8636 74.3258 35 73.6136C36.1439 72.9015 37.0492 71.8523 37.7159 70.4659C38.3902 69.0795 38.7273 67.3788 38.7273 65.3636ZM56.8295 69.8636V59.5455H59.5114V77H56.8295V74.0455H56.6477C56.2386 74.9318 55.6023 75.6856 54.7386 76.3068C53.875 76.9205 52.7841 77.2273 51.4659 77.2273C50.375 77.2273 49.4053 76.9886 48.5568 76.5114C47.7083 76.0265 47.0417 75.2992 46.5568 74.3295C46.072 73.3523 45.8295 72.1212 45.8295 70.6364V59.5455H48.5114V70.4545C48.5114 71.7273 48.8674 72.7424 49.5795 73.5C50.2992 74.2576 51.2159 74.6364 52.3295 74.6364C52.9962 74.6364 53.6742 74.4659 54.3636 74.125C55.0606 73.7841 55.6439 73.2614 56.1136 72.5568C56.5909 71.8523 56.8295 70.9545 56.8295 69.8636ZM71.7415 77.3636C70.0597 77.3636 68.6089 76.9924 67.3892 76.25C66.1771 75.5 65.2415 74.4545 64.5824 73.1136C63.9309 71.7652 63.6051 70.197 63.6051 68.4091C63.6051 66.6212 63.9309 65.0455 64.5824 63.6818C65.2415 62.3106 66.1581 61.2424 67.3324 60.4773C68.5142 59.7045 69.893 59.3182 71.4688 59.3182C72.3778 59.3182 73.2756 59.4697 74.1619 59.7727C75.0483 60.0758 75.8551 60.5682 76.5824 61.25C77.3097 61.9242 77.8892 62.8182 78.321 63.9318C78.7528 65.0455 78.9688 66.4167 78.9688 68.0455V69.1818H65.5142V66.8636H76.2415C76.2415 65.8788 76.0445 65 75.6506 64.2273C75.2642 63.4545 74.7112 62.8447 73.9915 62.3977C73.2794 61.9508 72.4384 61.7273 71.4688 61.7273C70.4006 61.7273 69.4763 61.9924 68.696 62.5227C67.9233 63.0455 67.3286 63.7273 66.9119 64.5682C66.4953 65.4091 66.2869 66.3106 66.2869 67.2727V68.8182C66.2869 70.1364 66.5142 71.2538 66.9688 72.1705C67.4309 73.0795 68.071 73.7727 68.8892 74.25C69.7074 74.7197 70.6581 74.9545 71.7415 74.9545C72.446 74.9545 73.0824 74.8561 73.6506 74.6591C74.2263 74.4545 74.7225 74.1515 75.1392 73.75C75.5559 73.3409 75.8778 72.8333 76.1051 72.2273L78.696 72.9545C78.4233 73.8333 77.965 74.6061 77.321 75.2727C76.6771 75.9318 75.8816 76.447 74.9347 76.8182C73.9877 77.1818 72.9233 77.3636 71.7415 77.3636ZM95.4119 63.4545L93.0028 64.1364C92.8513 63.7348 92.6278 63.3447 92.3324 62.9659C92.0445 62.5795 91.6506 62.2614 91.1506 62.0114C90.6506 61.7614 90.0104 61.6364 89.2301 61.6364C88.1619 61.6364 87.2718 61.8826 86.5597 62.375C85.8551 62.8598 85.5028 63.4773 85.5028 64.2273C85.5028 64.8939 85.7453 65.4205 86.2301 65.8068C86.715 66.1932 87.4725 66.5152 88.5028 66.7727L91.0938 67.4091C92.6544 67.7879 93.8172 68.3674 94.5824 69.1477C95.3475 69.9205 95.7301 70.9167 95.7301 72.1364C95.7301 73.1364 95.4422 74.0303 94.8665 74.8182C94.2983 75.6061 93.5028 76.2273 92.4801 76.6818C91.4574 77.1364 90.268 77.3636 88.9119 77.3636C87.1316 77.3636 85.6581 76.9773 84.4915 76.2045C83.3248 75.4318 82.5862 74.303 82.2756 72.8182L84.821 72.1818C85.0634 73.1212 85.5218 73.8258 86.196 74.2955C86.8778 74.7652 87.768 75 88.8665 75C90.1165 75 91.1089 74.7348 91.8438 74.2045C92.5862 73.6667 92.9574 73.0227 92.9574 72.2727C92.9574 71.6667 92.7453 71.1591 92.321 70.75C91.8968 70.3333 91.2453 70.0227 90.3665 69.8182L87.4574 69.1364C85.8589 68.7576 84.6847 68.1705 83.9347 67.375C83.1922 66.572 82.821 65.5682 82.821 64.3636C82.821 63.3788 83.0975 62.5076 83.6506 61.75C84.2112 60.9924 84.9725 60.3977 85.9347 59.9659C86.9044 59.5341 88.0028 59.3182 89.2301 59.3182C90.9574 59.3182 92.3134 59.697 93.2983 60.4545C94.2907 61.2121 94.9953 62.2121 95.4119 63.4545ZM107.358 59.5455V61.8182H98.3125V59.5455H107.358ZM100.949 55.3636H103.631V72C103.631 72.7576 103.741 73.3258 103.96 73.7045C104.188 74.0758 104.475 74.3258 104.824 74.4545C105.18 74.5758 105.555 74.6364 105.949 74.6364C106.244 74.6364 106.487 74.6212 106.676 74.5909C106.866 74.553 107.017 74.5227 107.131 74.5L107.676 76.9091C107.494 76.9773 107.241 77.0455 106.915 77.1136C106.589 77.1894 106.176 77.2273 105.676 77.2273C104.919 77.2273 104.176 77.0644 103.449 76.7386C102.729 76.4129 102.131 75.9167 101.653 75.25C101.184 74.5833 100.949 73.7424 100.949 72.7273V55.3636ZM111.392 77V59.5455H114.074V77H111.392ZM112.756 56.6364C112.233 56.6364 111.782 56.4583 111.403 56.1023C111.032 55.7462 110.847 55.3182 110.847 54.8182C110.847 54.3182 111.032 53.8902 111.403 53.5341C111.782 53.178 112.233 53 112.756 53C113.278 53 113.725 53.178 114.097 53.5341C114.475 53.8902 114.665 54.3182 114.665 54.8182C114.665 55.3182 114.475 55.7462 114.097 56.1023C113.725 56.4583 113.278 56.6364 112.756 56.6364ZM126.077 77.3636C124.501 77.3636 123.118 76.9886 121.929 76.2386C120.747 75.4886 119.823 74.4394 119.156 73.0909C118.497 71.7424 118.168 70.1667 118.168 68.3636C118.168 66.5455 118.497 64.9583 119.156 63.6023C119.823 62.2462 120.747 61.1932 121.929 60.4432C123.118 59.6932 124.501 59.3182 126.077 59.3182C127.652 59.3182 129.031 59.6932 130.213 60.4432C131.402 61.1932 132.327 62.2462 132.986 63.6023C133.652 64.9583 133.986 66.5455 133.986 68.3636C133.986 70.1667 133.652 71.7424 132.986 73.0909C132.327 74.4394 131.402 75.4886 130.213 76.2386C129.031 76.9886 127.652 77.3636 126.077 77.3636ZM126.077 74.9545C127.274 74.9545 128.259 74.6477 129.031 74.0341C129.804 73.4205 130.376 72.6136 130.747 71.6136C131.118 70.6136 131.304 69.5303 131.304 68.3636C131.304 67.197 131.118 66.1098 130.747 65.1023C130.376 64.0947 129.804 63.2803 129.031 62.6591C128.259 62.0379 127.274 61.7273 126.077 61.7273C124.88 61.7273 123.895 62.0379 123.122 62.6591C122.349 63.2803 121.777 64.0947 121.406 65.1023C121.035 66.1098 120.849 67.197 120.849 68.3636C120.849 69.5303 121.035 70.6136 121.406 71.6136C121.777 72.6136 122.349 73.4205 123.122 74.0341C123.895 74.6477 124.88 74.9545 126.077 74.9545ZM140.761 66.5V77H138.08V59.5455H140.67V62.2727H140.898C141.307 61.3864 141.928 60.6742 142.761 60.1364C143.595 59.5909 144.67 59.3182 145.989 59.3182C147.17 59.3182 148.205 59.5606 149.091 60.0455C149.977 60.5227 150.667 61.25 151.159 62.2273C151.652 63.197 151.898 64.4242 151.898 65.9091V77H149.216V66.0909C149.216 64.7197 148.86 63.6515 148.148 62.8864C147.436 62.1136 146.458 61.7273 145.216 61.7273C144.36 61.7273 143.595 61.9129 142.92 62.2841C142.254 62.6553 141.727 63.197 141.341 63.9091C140.955 64.6212 140.761 65.4848 140.761 66.5Z" fill="black"/>
<rect x="20" y="281" width="53" height="17" rx="4" fill="black"/>
<path d="M32.18 293.62C31.64 293.62 31.1367 293.533 30.67 293.36C30.21 293.18 29.81 292.927 29.47 292.6C29.13 292.273 28.8633 291.89 28.67 291.45C28.4833 291.01 28.39 290.527 28.39 290C28.39 289.473 28.4833 288.99 28.67 288.55C28.8633 288.11 29.13 287.727 29.47 287.4C29.8167 287.073 30.22 286.823 30.68 286.65C31.14 286.47 31.6433 286.38 32.19 286.38C32.7967 286.38 33.3433 286.487 33.83 286.7C34.3233 286.907 34.7367 287.213 35.07 287.62L34.03 288.58C33.79 288.307 33.5233 288.103 33.23 287.97C32.9367 287.83 32.6167 287.76 32.27 287.76C31.9433 287.76 31.6433 287.813 31.37 287.92C31.0967 288.027 30.86 288.18 30.66 288.38C30.46 288.58 30.3033 288.817 30.19 289.09C30.0833 289.363 30.03 289.667 30.03 290C30.03 290.333 30.0833 290.637 30.19 290.91C30.3033 291.183 30.46 291.42 30.66 291.62C30.86 291.82 31.0967 291.973 31.37 292.08C31.6433 292.187 31.9433 292.24 32.27 292.24C32.6167 292.24 32.9367 292.173 33.23 292.04C33.5233 291.9 33.79 291.69 34.03 291.41L35.07 292.37C34.7367 292.777 34.3233 293.087 33.83 293.3C33.3433 293.513 32.7933 293.62 32.18 293.62ZM40.964 286.5H42.584V293.5H40.964V286.5ZM37.784 293.5H36.164V286.5H37.784V293.5ZM41.084 290.63H37.664V289.26H41.084V290.63ZM45.7302 289.32H49.1002V290.58H45.7302V289.32ZM45.8502 292.2H49.6602V293.5H44.2402V286.5H49.5302V287.8H45.8502V292.2ZM54.2991 293.62C53.7591 293.62 53.2558 293.533 52.7891 293.36C52.3291 293.18 51.9291 292.927 51.5891 292.6C51.2491 292.273 50.9825 291.89 50.7891 291.45C50.6025 291.01 50.5091 290.527 50.5091 290C50.5091 289.473 50.6025 288.99 50.7891 288.55C50.9825 288.11 51.2491 287.727 51.5891 287.4C51.9358 287.073 52.3391 286.823 52.7991 286.65C53.2591 286.47 53.7625 286.38 54.3091 286.38C54.9158 286.38 55.4625 286.487 55.9491 286.7C56.4425 286.907 56.8558 287.213 57.1891 287.62L56.1491 288.58C55.9091 288.307 55.6425 288.103 55.3491 287.97C55.0558 287.83 54.7358 287.76 54.3891 287.76C54.0625 287.76 53.7625 287.813 53.4891 287.92C53.2158 288.027 52.9791 288.18 52.7791 288.38C52.5791 288.58 52.4225 288.817 52.3091 289.09C52.2025 289.363 52.1491 289.667 52.1491 290C52.1491 290.333 52.2025 290.637 52.3091 290.91C52.4225 291.183 52.5791 291.42 52.7791 291.62C52.9791 291.82 53.2158 291.973 53.4891 292.08C53.7625 292.187 54.0625 292.24 54.3891 292.24C54.7358 292.24 55.0558 292.173 55.3491 292.04C55.6425 291.9 55.9091 291.69 56.1491 291.41L57.1891 292.37C56.8558 292.777 56.4425 293.087 55.9491 293.3C55.4625 293.513 54.9125 293.62 54.2991 293.62ZM59.7331 291.9L59.6431 290.03L62.9931 286.5H64.7931L61.7731 289.75L60.8731 290.71L59.7331 291.9ZM58.2831 293.5V286.5H59.8931V293.5H58.2831ZM63.0731 293.5L60.5831 290.45L61.6431 289.3L64.9631 293.5H63.0731Z" fill="white"/>
</svg>
